<svg xmlns="http://www.w3.org/2000/svg" width="267" height="267" viewBox="0 0 267 267">
    <g fill="none" fill-rule="nonzero">
        <path fill="#174d9b" d="M133.91.05C60.53.05.83 59.75.83 133.13c0 73.38 59.7 133.09 133.08 133.09 73.38 0 133.09-59.7 133.09-133.09S207.3.05 133.91.05z"/>
        <path fill="#FFF" d="M74.83 145.19a5.86 5.86 0 0 0-5.94-6 8.43 8.43 0 0 0-8.33 7.55 5.94 5.94 0 0 0 4.86 6.46c4.7.92 9.45-3.12 9.41-8.01zM140.8 100.54a5.92 5.92 0 0 0-6.73-6.11 8.49 8.49 0 0 0-7.43 6.75 6 6 0 0 0 5.4 7.37 8.32 8.32 0 0 0 8.76-8.01zM81.13 100.53a6 6 0 0 0-6.75-6.11 8.57 8.57 0 0 0-7.42 6.77 6 6 0 0 0 5.54 7.37 8.32 8.32 0 0 0 8.63-8.03zM158.45 87.57a6 6 0 0 0 6.41 6.08 8.38 8.38 0 0 0 7.59-6c1.15-3.86-1-7.51-4.76-8.09a8.36 8.36 0 0 0-9.24 8.01zM107 79.51a8.44 8.44 0 0 0-8 6.26c-1 4.19 1.63 8 6.11 7.89a8.45 8.45 0 0 0 7.69-6.11c1.2-4.27-1.52-8.04-5.8-8.04zM197.86 175.7a8.38 8.38 0 0 0 8.13-7.59 6 6 0 0 0-6.35-6.55 8.44 8.44 0 0 0-7.71 6.25 6 6 0 0 0 5.93 7.89zM204 131.74a8.43 8.43 0 0 0-7.91 6.27c-1 4.1 1.52 7.93 6.08 7.88a8.44 8.44 0 0 0 7.74-6.17c1.16-4.3-1.58-7.99-5.91-7.98zM83.23 85.61a5.89 5.89 0 0 0-6.09-6.11 8.45 8.45 0 0 0-8.08 6.76 6 6 0 0 0 5 7.29c4.47.81 9.15-3.26 9.17-7.94zM70.94 123.47a8.34 8.34 0 0 0 8-6.7c.76-4.64-2.34-7.56-6.24-7.44a8.39 8.39 0 0 0-7.77 6.66 6 6 0 0 0 6.01 7.48zM70.88 124.3a8.25 8.25 0 0 0-8.19 7.36 5.91 5.91 0 0 0 5.85 6.72 8.38 8.38 0 0 0 8.26-6.51c.85-4.15-1.8-7.54-5.92-7.57zM64.62 168.26a8.4 8.4 0 0 0 7.94-6.4c1-5.07-2.56-8-6.48-7.75a8.53 8.53 0 0 0-7.32 6c-1.24 4.32 1.51 8.15 5.86 8.15zM200 160.81a8.42 8.42 0 0 0 8-6.73 6 6 0 0 0-6.35-7.44A8.55 8.55 0 0 0 194 153c-.94 4.29 1.78 7.83 6 7.81zM196.47 79.51a8.35 8.35 0 0 0-8 6.79c-.7 4.45 2.26 7.42 6.22 7.35a8.45 8.45 0 0 0 7.9-7.14 6 6 0 0 0-6.12-7zM214.34 108.12a5.89 5.89 0 0 0-6.21-6.26 8.47 8.47 0 0 0-8 7.45 6 6 0 0 0 5.24 6.68 8.3 8.3 0 0 0 8.97-7.87zM204.15 130.91a8.16 8.16 0 0 0 8-9.17 5.81 5.81 0 0 0-4.92-4.85 8.32 8.32 0 0 0-9 5.91c-1.23 4.33 1.54 8.13 5.92 8.11zM62.46 183.16a8.38 8.38 0 0 0 8.23-7.91 5.94 5.94 0 0 0-5.25-6.13 8.31 8.31 0 0 0-8.82 6.09c-1.14 4.25 1.58 7.93 5.84 7.95zM156.74 93.06a5.86 5.86 0 0 0-6.07-6.1 8.43 8.43 0 0 0-8.16 7.7 5.91 5.91 0 0 0 4.74 6.27 8.18 8.18 0 0 0 9.49-7.87zM128.69 87.63a5.83 5.83 0 0 0 6.34 6 8.38 8.38 0 0 0 7.81-7.05 6 6 0 0 0-4.48-6.83c-4.69-1.21-9.7 2.89-9.67 7.88zM132.59 109.41a8.33 8.33 0 0 0-8.1 7.29 6 6 0 0 0 6 6.74 8.37 8.37 0 0 0 8.15-6.79 5.94 5.94 0 0 0-6.05-7.24zM216.41 93.08a5.89 5.89 0 0 0-6.74-6.06 8.32 8.32 0 0 0-7.42 7.29 6 6 0 0 0 4.76 6.63c4.33.91 9.42-2.94 9.4-7.86zM128.45 138.32a8.33 8.33 0 0 0 8-6.78 6 6 0 0 0-6.09-7.2 8.26 8.26 0 0 0-7.86 6.8 5.87 5.87 0 0 0 5.95 7.18zM142.41 145.78a8.31 8.31 0 0 0 7.86-6.33c1-4.37-2.09-8-6.48-7.65a8.49 8.49 0 0 0-7.36 6.48c-.84 4.16 1.85 7.52 5.98 7.5zM134.22 154.64a5.81 5.81 0 0 0 4.76 6c4.55 1 9.95-3.35 9.29-8.73a5.79 5.79 0 0 0-4.59-5c-4.56-1.07-9.55 3.09-9.46 7.73zM124.25 169.13a8.12 8.12 0 0 0-8.08 8.48 5.79 5.79 0 0 0 5.57 5.5 8.38 8.38 0 0 0 8.37-6.38c.89-4.11-1.76-7.58-5.86-7.6zM152.5 123a5.76 5.76 0 0 0-6-6.06 8.33 8.33 0 0 0-8 6.2c-.92 3.75 1.25 7.22 4.85 7.74a8.2 8.2 0 0 0 9.15-7.88zM132.11 169.53a5.88 5.88 0 0 0 6.18 6.14 8.31 8.31 0 0 0 8-7.9 5.73 5.73 0 0 0-4.63-6 8.16 8.16 0 0 0-9.55 7.76zM134.44 145.42a5.93 5.93 0 0 0-7.18-6.08 8.24 8.24 0 0 0-6.92 7.36 5.77 5.77 0 0 0 4.54 6.4 8.14 8.14 0 0 0 9.56-7.68zM132.34 160.2a5.78 5.78 0 0 0-4.44-5.84 8.1 8.1 0 0 0-9.61 8.61 5.68 5.68 0 0 0 4.4 5 8.12 8.12 0 0 0 9.65-7.77zM118.79 101a8.11 8.11 0 0 0 8-8.65 5.71 5.71 0 0 0-4.9-5.13 8.13 8.13 0 0 0-9 6.47 5.88 5.88 0 0 0 5.9 7.31zM203.72 182.6a5.82 5.82 0 0 0-6.56-6 8.36 8.36 0 0 0-7.13 5.87c-1.2 4.16 1.42 7.91 5.57 8a8.16 8.16 0 0 0 8.12-7.87zM140.59 109.82a5.7 5.7 0 0 0 5.69 6 8.15 8.15 0 0 0 8.28-8 5.83 5.83 0 0 0-4.93-5.73 8.12 8.12 0 0 0-9.04 7.73zM188.55 78.17a5.84 5.84 0 0 0-6.15-6 8.44 8.44 0 0 0-7.49 5.8c-1.2 3.92 1.08 7.63 4.93 8.06a8.14 8.14 0 0 0 8.71-7.86zM89 100.9a8.06 8.06 0 0 0 7.91-7.13 5.78 5.78 0 0 0-5.44-6.61 8.24 8.24 0 0 0-8.26 6.27A5.87 5.87 0 0 0 89 100.9zM85.15 80.09a5.67 5.67 0 0 0 4.52 5.73c4.34 1.08 10.07-3.1 9.24-8.76a5.67 5.67 0 0 0-4.43-4.69 8 8 0 0 0-9.33 7.72zM200.24 100.65a5.7 5.7 0 0 0-5.94-6 8.21 8.21 0 0 0-7.73 6.44 5.87 5.87 0 0 0 4.86 7.22 8 8 0 0 0 8.81-7.66zM144 182.6a5.67 5.67 0 0 0-4.54-5.73 7.91 7.91 0 0 0-9.17 8.73 5.61 5.61 0 0 0 4.32 4.66 8 8 0 0 0 9.39-7.66zM121 85.85a7.89 7.89 0 0 0 7.72-7 5.64 5.64 0 0 0-5.26-6.5 8 8 0 0 0-8.17 6 5.76 5.76 0 0 0 5.71 7.5zM180.47 87.44A7.75 7.75 0 0 0 172.9 94a5.57 5.57 0 0 0 5.54 6.67 7.87 7.87 0 0 0 7.67-6.59 5.57 5.57 0 0 0-5.64-6.64zM157.57 78.45a4.75 4.75 0 0 0-5-5.12 6.89 6.89 0 0 0-6.61 5.45 5 5 0 0 0 5 6.15 6.86 6.86 0 0 0 6.61-6.48zM57.22 153.06a4.55 4.55 0 0 0-3.68-4.66 6.33 6.33 0 0 0-7.28 6.32A4.41 4.41 0 0 0 50 159a6.33 6.33 0 0 0 7.22-5.94zM209.33 161.92a4.63 4.63 0 0 0 5.2 4.7 6.61 6.61 0 0 0 5.77-5.7 4.63 4.63 0 0 0-3.42-5 6.35 6.35 0 0 0-7.55 6zM219.83 125.92a6.48 6.48 0 0 0-6.22 5.15 4.6 4.6 0 0 0 4.9 5.67 6.36 6.36 0 0 0 5.91-5.47 4.53 4.53 0 0 0-4.59-5.35zM56.73 118.48a6.44 6.44 0 0 0-6.26 5.56 4.58 4.58 0 0 0 4.61 5.24 6.36 6.36 0 0 0 6.19-5 4.55 4.55 0 0 0-4.54-5.8zM54.67 94.82a4.43 4.43 0 0 0 3.8 4.54 6.33 6.33 0 0 0 7.06-5.28 4.6 4.6 0 0 0-4.59-5.5 6.41 6.41 0 0 0-6.27 6.24zM53.13 144.19a6.41 6.41 0 0 0 6.18-5.62 4.59 4.59 0 0 0-3.64-5.09c-3-.69-6.36 1.59-7.15 4.84a4.56 4.56 0 0 0 4.61 5.87zM55.11 167.9a4.44 4.44 0 0 0-4.54-4.64 6.41 6.41 0 0 0-6.17 4.51c-.93 3.18 1 6.1 4.13 6.3a6.39 6.39 0 0 0 6.58-6.17zM217.69 140.82a6.53 6.53 0 0 0-6.2 5.35 4.6 4.6 0 0 0 5.11 5.48 6.36 6.36 0 0 0 5.69-5.24 4.6 4.6 0 0 0-4.6-5.59zM213.51 170.72a6.42 6.42 0 0 0-6.26 5.55 4.6 4.6 0 0 0 4.61 5.26 6.39 6.39 0 0 0 6.19-5 4.54 4.54 0 0 0-4.54-5.81zM52.56 109.67a4.63 4.63 0 0 0 5.31 4.7 6.6 6.6 0 0 0 5.66-5.8 4.67 4.67 0 0 0-3.42-4.89 6.34 6.34 0 0 0-7.55 5.99zM192 111.08a6.3 6.3 0 0 0-6 4.74c-.81 3.93 1.82 6 4.68 5.95a6.32 6.32 0 0 0 5.83-5.1 4.5 4.5 0 0 0-4.51-5.59zM226.47 115.65a4.44 4.44 0 0 0-4.09-4.56 6.34 6.34 0 0 0-6.66 5.82 4.42 4.42 0 0 0 3.72 4.74 6.19 6.19 0 0 0 7.03-6zM42.22 184.31a4.35 4.35 0 0 0 3.75 4.44 6.1 6.1 0 0 0 6.8-5.06 4.45 4.45 0 0 0-4.36-5.4 6.28 6.28 0 0 0-6.19 6.02zM87.17 114a6 6 0 0 0 5.83-5.6 4.24 4.24 0 0 0-3-4.29c-3.25-1-7 1.83-7.14 5.32a4.16 4.16 0 0 0 4.31 4.57zM189.92 160.53a4 4 0 0 0-3.41-4.21c-2.81-.59-5.84 1.64-6.44 4.73a4.19 4.19 0 0 0 4.14 5.09 5.8 5.8 0 0 0 5.71-5.61zM76.64 154.46a4 4 0 0 0 3.26 4.08c2.89.68 6-1.56 6.58-4.7a4.19 4.19 0 0 0-4.31-5.07 5.81 5.81 0 0 0-5.53 5.69zM192 145.49a4.07 4.07 0 0 0-4.06-4.17 5.9 5.9 0 0 0-5.9 5.46 4.16 4.16 0 0 0 3.2 4.29 5.7 5.7 0 0 0 6.76-5.58zM189.84 126.43a5.83 5.83 0 0 0-5.67 5.25 4.13 4.13 0 0 0 3.93 4.56 5.83 5.83 0 0 0 5.94-4.46 4.17 4.17 0 0 0-4.2-5.35zM182.24 181a5.68 5.68 0 0 0 5.52-6.47 3.92 3.92 0 0 0-3.33-3.29 5.79 5.79 0 0 0-6.29 3.93c-1 3.12.93 5.88 4.1 5.83zM78.81 173.57A5.89 5.89 0 0 0 84.5 168a4.12 4.12 0 0 0-3.61-4.22 5.77 5.77 0 0 0-6.28 4.5 4.19 4.19 0 0 0 4.2 5.29zM90.72 123.21a4 4 0 0 0-4.1-4.22 5.79 5.79 0 0 0-5.6 4 4.3 4.3 0 0 0 3.06 5.67 5.72 5.72 0 0 0 6.64-5.45zM78.74 139.3a4.05 4.05 0 0 0 4.2 4.41 5.9 5.9 0 0 0 5.53-4.17 4.28 4.28 0 0 0-3.32-5.62 5.75 5.75 0 0 0-6.41 5.38zM103.2 72.26a4 4 0 0 0 4.26 4.2 5.76 5.76 0 0 0 5.45-5.31 4 4 0 0 0-3.12-4.19c-3.12-.81-6.56 1.95-6.59 5.3zM66.26 190.35a3.91 3.91 0 0 0-3.17-4 5.62 5.62 0 0 0-6.53 5.57 4 4 0 0 0 3.77 3.91 5.64 5.64 0 0 0 5.93-5.48zM82.2 183a3.93 3.93 0 0 0-3.46-4.15 5.61 5.61 0 0 0-6.19 5.7 4 4 0 0 0 4.08 3.88A5.67 5.67 0 0 0 82.2 183zM121.73 186.39a5.53 5.53 0 0 0-5.17 4 4 4 0 0 0 4.38 5.27 5.45 5.45 0 0 0 4.8-4.57 3.88 3.88 0 0 0-4.01-4.7zM163.16 72.22a3.78 3.78 0 0 0 3.36 3.93 5.42 5.42 0 0 0 5.78-5.49 3.78 3.78 0 0 0-2.87-3.4 5.24 5.24 0 0 0-6.27 4.96zM227.59 100.84a3.51 3.51 0 0 0-2.85-3.63c-2.9-.72-6 1.89-5.94 5a3.66 3.66 0 0 0 3.84 3.69 5.14 5.14 0 0 0 4.95-5.06zM207.17 79.75a3.52 3.52 0 0 0 3.71 3.61 5 5 0 0 0 4.8-4.7 3.47 3.47 0 0 0-3.51-3.78 4.91 4.91 0 0 0-5 4.87zM62.84 75a4.9 4.9 0 0 0-4.64 3.48 3.57 3.57 0 0 0 4.28 4.7 4.69 4.69 0 0 0 3.84-3.73A3.46 3.46 0 0 0 62.84 75zM164 97.52a4.72 4.72 0 0 0-4.55 4 3.36 3.36 0 0 0 3.44 3.91 4.64 4.64 0 0 0 4.51-3.43 3.36 3.36 0 0 0-3.4-4.48zM201.53 71.22a3.26 3.26 0 0 0-2.9-3.49 4.57 4.57 0 0 0-5 4.4 3.3 3.3 0 0 0 3.34 3.49 4.74 4.74 0 0 0 4.56-4.4zM118.23 105.22a4.49 4.49 0 0 0-4.33 4.17 3.12 3.12 0 0 0 2.7 3.23 4.39 4.39 0 0 0 4.79-3.26 3.19 3.19 0 0 0-3.16-4.14zM74.5 72.19a3 3 0 0 0 2.53 3.08 4.29 4.29 0 0 0 4.88-4.17 3.1 3.1 0 0 0-3.19-3.17 4.36 4.36 0 0 0-4.22 4.26zM210.16 194.59a4.23 4.23 0 0 0 4.07-3.65 3 3 0 0 0-3.07-3.48 4.21 4.21 0 0 0-4 3.21 3 3 0 0 0 3 3.92zM104.32 98a4.13 4.13 0 0 0-4 3.39 3 3 0 0 0 2.95 3.54 4.14 4.14 0 0 0 4-3.34 2.93 2.93 0 0 0-2.95-3.59zM184.06 190.6a2.7 2.7 0 0 0-2.92-2.85 4 4 0 0 0-3.6 3 2.84 2.84 0 0 0 2 3.5 3.79 3.79 0 0 0 4.52-3.65zM137.52 74.43a3.33 3.33 0 0 0 3.23-3.19 2.35 2.35 0 0 0-2.57-2.38 3.23 3.23 0 0 0-3.13 3.25 2.28 2.28 0 0 0 2.47 2.32zM115.29 126.08a2.62 2.62 0 0 0 2.57-2.51 1.83 1.83 0 0 0-1.92-1.89 2.64 2.64 0 0 0-2.58 2.49 1.88 1.88 0 0 0 1.93 1.91zM159.08 133.49a2.53 2.53 0 0 0 2.39-2.53 1.83 1.83 0 0 0-1.9-1.79 2.66 2.66 0 0 0-2.43 2.54 1.87 1.87 0 0 0 1.94 1.78zM111.52 168.41a1.83 1.83 0 0 0-1.78-1.89 2.5 2.5 0 0 0-2.56 2.3 1.78 1.78 0 0 0 1.81 2 2.62 2.62 0 0 0 2.53-2.41zM152.77 178.29a2.55 2.55 0 0 0 2.4-2.5 1.77 1.77 0 0 0-1.94-1.83 2.47 2.47 0 0 0-2.32 2.53 1.79 1.79 0 0 0 1.86 1.8zM113.88 136.64a2.52 2.52 0 0 0-2.49 2.42 1.74 1.74 0 0 0 1.77 1.88 2.46 2.46 0 0 0 2.49-2.4 1.77 1.77 0 0 0-1.77-1.9zM157 148.39a2.47 2.47 0 0 0 2.39-2.47 1.72 1.72 0 0 0-1.84-1.78 2.55 2.55 0 0 0-2.5 2.4 1.82 1.82 0 0 0 1.95 1.85zM113.57 153.4a1.71 1.71 0 0 0-1.85-1.79 2.41 2.41 0 0 0-2.43 2.43 1.69 1.69 0 0 0 1.84 1.79 2.44 2.44 0 0 0 2.44-2.43zM157.27 160.93a1.7 1.7 0 0 0-1.77-1.86 2.45 2.45 0 0 0-2.51 2.36 1.71 1.71 0 0 0 1.78 1.86 2.42 2.42 0 0 0 2.5-2.36zM109.3 183.23a1.75 1.75 0 0 0-1.87-1.77 2.57 2.57 0 0 0-2.32 2.46 1.82 1.82 0 0 0 1.91 1.76 2.46 2.46 0 0 0 2.28-2.45zM161.16 118.4a2.29 2.29 0 0 0 2.25-2.29 1.55 1.55 0 0 0-1.66-1.65 2.24 2.24 0 0 0-2.32 2.2 1.62 1.62 0 0 0 1.73 1.74zM225.08 88.42a2.25 2.25 0 0 0 2.12-2.13 1.55 1.55 0 0 0-1.75-1.55 2.2 2.2 0 0 0-2.05 2 1.58 1.58 0 0 0 1.68 1.68zM194.35 200.24a2.14 2.14 0 0 0 2.08-2 1.5 1.5 0 0 0-1.41-1.48 2.06 2.06 0 0 0-2.12 1.91 1.47 1.47 0 0 0 1.45 1.57zM185.38 64a1.35 1.35 0 0 0-1.5-1.45 1.92 1.92 0 0 0-1.89 1.83 1.39 1.39 0 0 0 1.43 1.53 2 2 0 0 0 1.96-1.91zM136.6 198.33a1.38 1.38 0 0 0-1.32-1.51 2.08 2.08 0 0 0-2 1.9 1.41 1.41 0 0 0 1.44 1.41 1.84 1.84 0 0 0 1.88-1.8zM92.58 64.44a1.35 1.35 0 0 0 1.33 1.36 1.89 1.89 0 0 0 1.83-1.88 1.33 1.33 0 0 0-1.46-1.35 1.88 1.88 0 0 0-1.7 1.87zM152.53 190.76a1.37 1.37 0 0 0-1.45-1.36 1.9 1.9 0 0 0-1.73 2 1.31 1.31 0 0 0 1.38 1.28 1.88 1.88 0 0 0 1.8-1.92zM124.14 62.76a1.6 1.6 0 0 0-1.58 1.62 1.16 1.16 0 0 0 1.24 1.24 1.65 1.65 0 0 0 1.64-1.7 1.11 1.11 0 0 0-1.3-1.16z"/>
        <path fill="#FFF" d="M74.83 145.19c0 4.89-4.71 8.93-9.41 8a5.94 5.94 0 0 1-4.86-6.46 8.43 8.43 0 0 1 8.33-7.55 5.86 5.86 0 0 1 5.94 6.01zM140.8 100.54a8.32 8.32 0 0 1-8.76 8 6 6 0 0 1-5.4-7.37 8.49 8.49 0 0 1 7.43-6.75 5.92 5.92 0 0 1 6.73 6.12zM81.13 100.53a8.32 8.32 0 0 1-8.63 8 6 6 0 0 1-5.54-7.37 8.57 8.57 0 0 1 7.42-6.77 6 6 0 0 1 6.75 6.14zM158.45 87.57a8.36 8.36 0 0 1 9.24-8c3.77.58 5.91 4.23 4.76 8.09a8.38 8.38 0 0 1-7.59 6 6 6 0 0 1-6.41-6.09zM107 79.51c4.32 0 7 3.77 5.85 8a8.45 8.45 0 0 1-7.69 6.11c-4.48.07-7.13-3.7-6.11-7.89a8.44 8.44 0 0 1 7.95-6.22zM197.86 175.7a6 6 0 0 1-5.93-7.89 8.44 8.44 0 0 1 7.71-6.25 6 6 0 0 1 6.35 6.55 8.38 8.38 0 0 1-8.13 7.59zM204 131.74c4.31 0 7.05 3.68 5.91 8a8.44 8.44 0 0 1-7.74 6.17c-4.56.05-7.08-3.78-6.08-7.88a8.43 8.43 0 0 1 7.91-6.29zM83.23 85.61c0 4.68-4.7 8.75-9.15 7.94a6 6 0 0 1-5-7.29 8.45 8.45 0 0 1 8.08-6.76 5.89 5.89 0 0 1 6.07 6.11zM70.94 123.47a6 6 0 0 1-6-7.48 8.39 8.39 0 0 1 7.77-6.66c3.9-.12 7 2.8 6.24 7.44a8.34 8.34 0 0 1-8.01 6.7zM70.88 124.3c4.12 0 6.77 3.42 5.92 7.57a8.38 8.38 0 0 1-8.26 6.51 5.91 5.91 0 0 1-5.85-6.72 8.25 8.25 0 0 1 8.19-7.36zM64.62 168.26c-4.35 0-7.1-3.83-5.86-8.13a8.53 8.53 0 0 1 7.32-6c3.92-.29 7.52 2.68 6.48 7.75a8.4 8.4 0 0 1-7.94 6.38zM200 160.81c-4.19 0-6.91-3.52-6-7.77a8.55 8.55 0 0 1 7.59-6.4 6 6 0 0 1 6.35 7.44 8.42 8.42 0 0 1-7.94 6.73zM196.47 79.51a6 6 0 0 1 6.08 7 8.45 8.45 0 0 1-7.9 7.14c-4 .07-6.92-2.9-6.22-7.35a8.35 8.35 0 0 1 8.04-6.79zM214.34 108.12a8.3 8.3 0 0 1-9 7.87 6 6 0 0 1-5.24-6.68 8.47 8.47 0 0 1 8-7.45 5.89 5.89 0 0 1 6.24 6.26zM204.15 130.91c-4.38 0-7.13-3.78-5.86-8.11a8.32 8.32 0 0 1 9-5.91 5.81 5.81 0 0 1 4.92 4.85 8.16 8.16 0 0 1-8.06 9.17zM62.46 183.16c-4.26 0-7-3.7-5.84-7.95a8.31 8.31 0 0 1 8.82-6.09 5.94 5.94 0 0 1 5.25 6.13 8.38 8.38 0 0 1-8.23 7.91zM156.74 93.06a8.18 8.18 0 0 1-9.49 7.87 5.91 5.91 0 0 1-4.74-6.27 8.43 8.43 0 0 1 8.16-7.7 5.86 5.86 0 0 1 6.07 6.1zM128.69 87.63c0-5 5-9.09 9.67-7.91a6 6 0 0 1 4.48 6.83A8.38 8.38 0 0 1 135 93.6a5.83 5.83 0 0 1-6.31-5.97zM132.59 109.41a5.94 5.94 0 0 1 6 7.24 8.37 8.37 0 0 1-8.15 6.79 6 6 0 0 1-6-6.74 8.33 8.33 0 0 1 8.15-7.29zM216.41 93.08c0 4.94-5.07 8.77-9.4 7.86a6 6 0 0 1-4.76-6.63 8.32 8.32 0 0 1 7.42-7.29 5.89 5.89 0 0 1 6.74 6.06zM128.45 138.32a5.87 5.87 0 0 1-5.92-7.18 8.26 8.26 0 0 1 7.86-6.8 6 6 0 0 1 6.09 7.2 8.33 8.33 0 0 1-8.03 6.78zM142.41 145.78c-4.13 0-6.82-3.34-6-7.5a8.49 8.49 0 0 1 7.36-6.48c4.39-.34 7.45 3.28 6.48 7.65a8.31 8.31 0 0 1-7.84 6.33zM134.22 154.64c-.09-4.68 4.9-8.8 9.46-7.78a5.79 5.79 0 0 1 4.59 5c.66 5.38-4.74 9.69-9.29 8.73a5.81 5.81 0 0 1-4.76-5.95zM124.25 169.13c4.1 0 6.78 3.49 5.86 7.6a8.38 8.38 0 0 1-8.37 6.38 5.79 5.79 0 0 1-5.57-5.5 8.12 8.12 0 0 1 8.08-8.48zM152.5 123a8.2 8.2 0 0 1-9.07 7.88c-3.6-.52-5.77-4-4.85-7.74a8.33 8.33 0 0 1 8-6.2 5.76 5.76 0 0 1 5.92 6.06zM132.11 169.53a8.16 8.16 0 0 1 9.52-7.74 5.73 5.73 0 0 1 4.63 6 8.31 8.31 0 0 1-8 7.9 5.88 5.88 0 0 1-6.15-6.16zM134.44 145.42a8.14 8.14 0 0 1-9.56 7.68 5.77 5.77 0 0 1-4.54-6.4 8.24 8.24 0 0 1 6.92-7.36 5.93 5.93 0 0 1 7.18 6.08zM132.34 160.2a8.12 8.12 0 0 1-9.65 7.8 5.68 5.68 0 0 1-4.4-5 8.1 8.1 0 0 1 9.61-8.61 5.78 5.78 0 0 1 4.44 5.81zM118.79 101a5.88 5.88 0 0 1-5.87-7.31 8.13 8.13 0 0 1 9-6.47 5.71 5.71 0 0 1 4.9 5.13 8.11 8.11 0 0 1-8.03 8.65zM203.72 182.6a8.16 8.16 0 0 1-8.12 7.92c-4.15-.09-6.77-3.84-5.57-8a8.36 8.36 0 0 1 7.13-5.87 5.82 5.82 0 0 1 6.56 5.95zM140.59 109.82a8.12 8.12 0 0 1 9-7.73 5.83 5.83 0 0 1 4.93 5.73 8.15 8.15 0 0 1-8.28 8 5.7 5.7 0 0 1-5.65-6zM188.55 78.17a8.14 8.14 0 0 1-8.71 7.84c-3.85-.43-6.13-4.14-4.93-8.06a8.44 8.44 0 0 1 7.49-5.8 5.84 5.84 0 0 1 6.15 6.02zM89 100.9a5.87 5.87 0 0 1-5.79-7.47 8.24 8.24 0 0 1 8.26-6.27 5.78 5.78 0 0 1 5.44 6.61A8.06 8.06 0 0 1 89 100.9zM85.15 80.09a8 8 0 0 1 9.33-7.72 5.67 5.67 0 0 1 4.43 4.69c.83 5.66-4.9 9.84-9.24 8.76a5.67 5.67 0 0 1-4.52-5.73zM200.24 100.65a8 8 0 0 1-8.81 7.64 5.87 5.87 0 0 1-4.86-7.22 8.21 8.21 0 0 1 7.73-6.44 5.7 5.7 0 0 1 5.94 6.02zM144 182.6a8 8 0 0 1-9.39 7.66 5.61 5.61 0 0 1-4.32-4.66 7.91 7.91 0 0 1 9.17-8.73 5.67 5.67 0 0 1 4.54 5.73zM121 85.85a5.76 5.76 0 0 1-5.71-7.49 8 8 0 0 1 8.17-6 5.64 5.64 0 0 1 5.26 6.5 7.89 7.89 0 0 1-7.72 6.99zM180.47 87.44a5.57 5.57 0 0 1 5.64 6.6 7.87 7.87 0 0 1-7.67 6.59A5.57 5.57 0 0 1 172.9 94a7.75 7.75 0 0 1 7.57-6.56zM157.57 78.45a6.86 6.86 0 0 1-6.61 6.48 5 5 0 0 1-5-6.15 6.89 6.89 0 0 1 6.61-5.45 4.75 4.75 0 0 1 5 5.12zM57.22 153.06a6.33 6.33 0 0 1-7.2 6 4.41 4.41 0 0 1-3.76-4.32 6.33 6.33 0 0 1 7.28-6.32 4.55 4.55 0 0 1 3.68 4.64zM209.33 161.92a6.35 6.35 0 0 1 7.55-6 4.63 4.63 0 0 1 3.42 5 6.61 6.61 0 0 1-5.77 5.7 4.63 4.63 0 0 1-5.2-4.7zM219.83 125.92a4.53 4.53 0 0 1 4.59 5.35 6.36 6.36 0 0 1-5.91 5.47 4.6 4.6 0 0 1-4.9-5.67 6.48 6.48 0 0 1 6.22-5.15zM56.73 118.48a4.55 4.55 0 0 1 4.54 5.81 6.36 6.36 0 0 1-6.19 5 4.58 4.58 0 0 1-4.61-5.24 6.44 6.44 0 0 1 6.26-5.57zM54.67 94.82a6.41 6.41 0 0 1 6.27-6.24 4.6 4.6 0 0 1 4.59 5.5 6.33 6.33 0 0 1-7.06 5.28 4.43 4.43 0 0 1-3.8-4.54zM53.13 144.19a4.56 4.56 0 0 1-4.61-5.87c.79-3.25 4.15-5.53 7.15-4.84a4.59 4.59 0 0 1 3.64 5.09 6.41 6.41 0 0 1-6.18 5.62zM55.11 167.9a6.39 6.39 0 0 1-6.58 6.17c-3.15-.2-5.06-3.12-4.13-6.3a6.41 6.41 0 0 1 6.17-4.51 4.44 4.44 0 0 1 4.54 4.64zM217.69 140.82a4.6 4.6 0 0 1 4.6 5.59 6.36 6.36 0 0 1-5.69 5.24 4.6 4.6 0 0 1-5.11-5.48 6.53 6.53 0 0 1 6.2-5.35zM213.51 170.72a4.54 4.54 0 0 1 4.54 5.81 6.39 6.39 0 0 1-6.19 5 4.6 4.6 0 0 1-4.61-5.26 6.42 6.42 0 0 1 6.26-5.55zM52.56 109.67a6.34 6.34 0 0 1 7.55-6 4.67 4.67 0 0 1 3.42 4.89 6.6 6.6 0 0 1-5.66 5.8 4.63 4.63 0 0 1-5.31-4.69zM192 111.08a4.5 4.5 0 0 1 4.53 5.59 6.32 6.32 0 0 1-5.83 5.1c-2.86.1-5.49-2-4.68-5.95a6.3 6.3 0 0 1 5.98-4.74zM226.47 115.65a6.19 6.19 0 0 1-7 6 4.42 4.42 0 0 1-3.72-4.74 6.34 6.34 0 0 1 6.66-5.82 4.44 4.44 0 0 1 4.06 4.56zM42.22 184.31a6.28 6.28 0 0 1 6.19-6 4.45 4.45 0 0 1 4.36 5.4 6.1 6.1 0 0 1-6.8 5.06 4.35 4.35 0 0 1-3.75-4.46zM87.17 114a4.16 4.16 0 0 1-4.37-4.53c.1-3.49 3.89-6.31 7.14-5.32a4.24 4.24 0 0 1 3 4.29 6 6 0 0 1-5.77 5.56zM189.92 160.53a5.8 5.8 0 0 1-5.71 5.61 4.19 4.19 0 0 1-4.14-5.09c.6-3.09 3.63-5.32 6.44-4.73a4 4 0 0 1 3.41 4.21zM76.64 154.46a5.81 5.81 0 0 1 5.53-5.69 4.19 4.19 0 0 1 4.31 5.07c-.57 3.14-3.69 5.38-6.58 4.7a4 4 0 0 1-3.26-4.08zM192 145.49a5.7 5.7 0 0 1-6.76 5.58 4.16 4.16 0 0 1-3.2-4.29 5.9 5.9 0 0 1 5.9-5.46 4.07 4.07 0 0 1 4.06 4.17zM189.84 126.43a4.17 4.17 0 0 1 4.2 5.35 5.83 5.83 0 0 1-5.94 4.46 4.13 4.13 0 0 1-3.93-4.56 5.83 5.83 0 0 1 5.67-5.25zM182.24 181c-3.17 0-5.1-2.73-4.1-5.83a5.79 5.79 0 0 1 6.29-3.93 3.92 3.92 0 0 1 3.33 3.29 5.68 5.68 0 0 1-5.52 6.47zM78.81 173.57a4.19 4.19 0 0 1-4.2-5.27 5.77 5.77 0 0 1 6.28-4.5 4.12 4.12 0 0 1 3.61 4.2 5.89 5.89 0 0 1-5.69 5.57zM90.72 123.21a5.72 5.72 0 0 1-6.64 5.5A4.3 4.3 0 0 1 81 123a5.79 5.79 0 0 1 5.6-4 4 4 0 0 1 4.12 4.21zM78.74 139.3a5.75 5.75 0 0 1 6.41-5.38 4.28 4.28 0 0 1 3.32 5.62 5.9 5.9 0 0 1-5.53 4.17 4.05 4.05 0 0 1-4.2-4.41zM103.2 72.26c0-3.35 3.47-6.11 6.59-5.3a4 4 0 0 1 3.12 4.19 5.76 5.76 0 0 1-5.45 5.31 4 4 0 0 1-4.26-4.2zM66.26 190.35a5.64 5.64 0 0 1-5.93 5.48 4 4 0 0 1-3.77-3.91 5.62 5.62 0 0 1 6.53-5.57 3.91 3.91 0 0 1 3.17 4zM82.2 183a5.67 5.67 0 0 1-5.57 5.43 4 4 0 0 1-4.08-3.88 5.61 5.61 0 0 1 6.19-5.7A3.93 3.93 0 0 1 82.2 183zM121.73 186.39a3.88 3.88 0 0 1 4 4.69 5.45 5.45 0 0 1-4.8 4.57 4 4 0 0 1-4.38-5.27 5.53 5.53 0 0 1 5.18-3.99zM163.16 72.22a5.24 5.24 0 0 1 6.27-5 3.78 3.78 0 0 1 2.87 3.4 5.42 5.42 0 0 1-5.78 5.49 3.78 3.78 0 0 1-3.36-3.89zM227.59 100.84a5.14 5.14 0 0 1-5 5 3.66 3.66 0 0 1-3.84-3.69c-.06-3.1 3-5.71 5.94-5a3.51 3.51 0 0 1 2.9 3.69zM207.17 79.75a4.91 4.91 0 0 1 5-4.87 3.47 3.47 0 0 1 3.51 3.78 5 5 0 0 1-4.8 4.7 3.52 3.52 0 0 1-3.71-3.61zM62.84 75a3.46 3.46 0 0 1 3.48 4.45 4.69 4.69 0 0 1-3.84 3.73 3.57 3.57 0 0 1-4.28-4.7A4.9 4.9 0 0 1 62.84 75zM164 97.52a3.36 3.36 0 0 1 3.4 4.48 4.64 4.64 0 0 1-4.47 3.46 3.36 3.36 0 0 1-3.44-3.91 4.72 4.72 0 0 1 4.51-4.03zM201.53 71.22a4.74 4.74 0 0 1-4.59 4.4 3.3 3.3 0 0 1-3.34-3.49 4.57 4.57 0 0 1 5-4.4 3.26 3.26 0 0 1 2.93 3.49zM118.23 105.22a3.19 3.19 0 0 1 3.16 4.14 4.39 4.39 0 0 1-4.79 3.26 3.12 3.12 0 0 1-2.7-3.23 4.49 4.49 0 0 1 4.33-4.17zM74.5 72.19a4.36 4.36 0 0 1 4.22-4.26 3.1 3.1 0 0 1 3.19 3.17 4.29 4.29 0 0 1-4.88 4.17 3 3 0 0 1-2.53-3.08zM210.16 194.59a3 3 0 0 1-3-3.92 4.21 4.21 0 0 1 4-3.21 3 3 0 0 1 3.07 3.48 4.23 4.23 0 0 1-4.07 3.65zM104.32 98a2.93 2.93 0 0 1 3 3.59 4.14 4.14 0 0 1-4 3.34 3 3 0 0 1-2.95-3.54 4.13 4.13 0 0 1 3.95-3.39zM184.06 190.6a3.79 3.79 0 0 1-4.5 3.64 2.84 2.84 0 0 1-2-3.5 4 4 0 0 1 3.6-3 2.7 2.7 0 0 1 2.9 2.86zM137.52 74.43a2.28 2.28 0 0 1-2.47-2.32 3.23 3.23 0 0 1 3.13-3.25 2.35 2.35 0 0 1 2.57 2.38 3.33 3.33 0 0 1-3.23 3.19zM115.29 126.08a1.88 1.88 0 0 1-1.93-1.91 2.64 2.64 0 0 1 2.58-2.49 1.83 1.83 0 0 1 1.92 1.89 2.62 2.62 0 0 1-2.57 2.51zM159.08 133.49a1.87 1.87 0 0 1-1.94-1.78 2.66 2.66 0 0 1 2.43-2.54 1.83 1.83 0 0 1 1.9 1.79 2.53 2.53 0 0 1-2.39 2.53zM111.52 168.41a2.62 2.62 0 0 1-2.52 2.39 1.78 1.78 0 0 1-1.81-2 2.5 2.5 0 0 1 2.56-2.3 1.83 1.83 0 0 1 1.77 1.91zM152.77 178.29a1.79 1.79 0 0 1-1.86-1.8 2.47 2.47 0 0 1 2.32-2.53 1.77 1.77 0 0 1 1.94 1.83 2.55 2.55 0 0 1-2.4 2.5zM113.88 136.64a1.77 1.77 0 0 1 1.77 1.9 2.46 2.46 0 0 1-2.49 2.4 1.74 1.74 0 0 1-1.77-1.88 2.52 2.52 0 0 1 2.49-2.42zM157 148.39a1.82 1.82 0 0 1-2-1.85 2.55 2.55 0 0 1 2.5-2.4 1.72 1.72 0 0 1 1.84 1.78 2.47 2.47 0 0 1-2.34 2.47zM113.57 153.4a2.44 2.44 0 0 1-2.44 2.43 1.69 1.69 0 0 1-1.84-1.79 2.41 2.41 0 0 1 2.43-2.43 1.71 1.71 0 0 1 1.85 1.79zM157.27 160.93a2.42 2.42 0 0 1-2.5 2.36 1.71 1.71 0 0 1-1.78-1.86 2.45 2.45 0 0 1 2.51-2.36 1.7 1.7 0 0 1 1.77 1.86zM109.3 183.23a2.46 2.46 0 0 1-2.28 2.45 1.82 1.82 0 0 1-1.91-1.76 2.57 2.57 0 0 1 2.32-2.46 1.75 1.75 0 0 1 1.87 1.77zM161.16 118.4a1.62 1.62 0 0 1-1.73-1.74 2.24 2.24 0 0 1 2.32-2.2 1.55 1.55 0 0 1 1.66 1.65c0 1.25-1 2.268-2.25 2.29zM225.08 88.42a1.58 1.58 0 0 1-1.68-1.64 2.2 2.2 0 0 1 2.05-2 1.55 1.55 0 0 1 1.75 1.55 2.25 2.25 0 0 1-2.12 2.09zM194.35 200.24a1.47 1.47 0 0 1-1.45-1.56 2.06 2.06 0 0 1 2.12-1.91 1.5 1.5 0 0 1 1.41 1.48 2.14 2.14 0 0 1-2.08 1.99zM185.38 64a2 2 0 0 1-2 1.91 1.39 1.39 0 0 1-1.43-1.53 1.92 1.92 0 0 1 1.89-1.83 1.35 1.35 0 0 1 1.54 1.45zM136.6 198.33a1.84 1.84 0 0 1-1.89 1.8 1.41 1.41 0 0 1-1.44-1.41 2.08 2.08 0 0 1 2-1.9 1.38 1.38 0 0 1 1.33 1.51zM92.58 64.44a1.88 1.88 0 0 1 1.7-1.87 1.33 1.33 0 0 1 1.46 1.35 1.89 1.89 0 0 1-1.83 1.88 1.35 1.35 0 0 1-1.33-1.36zM152.53 190.76a1.88 1.88 0 0 1-1.8 1.89 1.31 1.31 0 0 1-1.38-1.28 1.9 1.9 0 0 1 1.73-2 1.37 1.37 0 0 1 1.45 1.39zM124.14 62.76a1.11 1.11 0 0 1 1.3 1.16 1.65 1.65 0 0 1-1.64 1.7 1.16 1.16 0 0 1-1.24-1.24 1.6 1.6 0 0 1 1.58-1.62z"/>
    </g>
</svg>
